# xmcd CD database file
#
# Track frame offsets:
#	150
#	24368
#	54989
#	80024
#	101949
#	127155
#	140945
#	157785
#	176538
#	197808
#
# Disc length: 2873 seconds
#
# Revision: 0
# Processed by: cddbd v1.5.1PL0 Copyright (c) Steve Scherf et al.
# Submitted via: CDex 1.50beta10
#
DISCID=8a0b370a
DTITLE=RESOUND WAV. - The sound story of impression I [CLANNAD]
DYEAR=2004
DGENRE=Indie
TTITLE0=幻想世界
TTITLE1=メグメル -インストゥルメンタル-
TTITLE2=渚
TTITLE3=町、時の流れ、人
TTITLE4=それは風のように
TTITLE5=灰になれ 〜灰燼に帰す〜
TTITLE6=TOE
TTITLE7=同じ高みへ
TTITLE8=影二つ -インストゥルメンタル-
TTITLE9=汐
EXTD=YEAR: 2004
EXTT0=
EXTT1=
EXTT2=
EXTT3=
EXTT4=
EXTT5=
EXTT6=
EXTT7=
EXTT8=
EXTT9=
PLAYORDER=
